<mxfile host="app.diagrams.net" modified="2023-01-31T08:04:41.477Z" agent="5.0 (Macintosh; Intel Mac OS X 10_15_7) AppleWebKit/537.36 (KHTML, like Gecko) Chrome/109.0.0.0 Safari/537.36" etag="9Xr9eRs3ukPlbtrDlDGs" version="20.8.13" type="github">
  <diagram name="第 1 页" id="avZ2fyNiAIYyVJhtNdak">
    <mxGraphModel dx="690" dy="534" grid="1" gridSize="10" guides="1" tooltips="1" connect="0" arrows="1" fold="1" page="1" pageScale="1" pageWidth="827" pageHeight="1169" math="0" shadow="0">
      <root>
        <mxCell id="0" />
        <mxCell id="1" parent="0" />
        <mxCell id="lABieaH--rDoVOybhZKd-36" value="" style="endArrow=none;html=1;rounded=1;fontColor=#000000;endFill=0;dashed=1;exitX=0.909;exitY=0;exitDx=0;exitDy=0;exitPerimeter=0;strokeWidth=1;" parent="1" edge="1" source="lABieaH--rDoVOybhZKd-29">
          <mxGeometry relative="1" as="geometry">
            <mxPoint x="515" y="364" as="sourcePoint" />
            <mxPoint x="514.5" y="100" as="targetPoint" />
            <mxPoint as="offset" />
          </mxGeometry>
        </mxCell>
        <mxCell id="lABieaH--rDoVOybhZKd-35" value="" style="endArrow=none;html=1;rounded=1;fontColor=#000000;endFill=0;dashed=1;exitX=0.672;exitY=-0.25;exitDx=0;exitDy=0;exitPerimeter=0;strokeWidth=1;" parent="1" edge="1" source="lABieaH--rDoVOybhZKd-29">
          <mxGeometry relative="1" as="geometry">
            <mxPoint x="395" y="362" as="sourcePoint" />
            <mxPoint x="394.5" y="98" as="targetPoint" />
            <mxPoint as="offset" />
          </mxGeometry>
        </mxCell>
        <mxCell id="lABieaH--rDoVOybhZKd-34" value="" style="endArrow=none;html=1;rounded=1;fontColor=#000000;endFill=0;dashed=1;exitX=0.41;exitY=-0.2;exitDx=0;exitDy=0;exitPerimeter=0;strokeWidth=1;" parent="1" edge="1" source="lABieaH--rDoVOybhZKd-29">
          <mxGeometry relative="1" as="geometry">
            <mxPoint x="265" y="364" as="sourcePoint" />
            <mxPoint x="264.5" y="100" as="targetPoint" />
            <mxPoint as="offset" />
          </mxGeometry>
        </mxCell>
        <mxCell id="lABieaH--rDoVOybhZKd-31" value="" style="endArrow=none;html=1;rounded=1;fontColor=#000000;endFill=0;dashed=1;exitX=0.09;exitY=-0.3;exitDx=0;exitDy=0;exitPerimeter=0;strokeWidth=1;" parent="1" source="lABieaH--rDoVOybhZKd-29" edge="1">
          <mxGeometry relative="1" as="geometry">
            <mxPoint x="104.5" y="166" as="sourcePoint" />
            <mxPoint x="104.5" y="100" as="targetPoint" />
            <mxPoint as="offset" />
          </mxGeometry>
        </mxCell>
        <mxCell id="lABieaH--rDoVOybhZKd-1" value="" style="shape=umlActor;verticalLabelPosition=bottom;verticalAlign=top;html=1;outlineConnect=0;" parent="1" vertex="1">
          <mxGeometry x="95" y="40" width="20" height="30" as="geometry" />
        </mxCell>
        <mxCell id="lABieaH--rDoVOybhZKd-2" value="weChatBot" style="rounded=0;whiteSpace=wrap;html=1;fillColor=#ffff88;strokeColor=#36393d;" parent="1" vertex="1">
          <mxGeometry x="60" y="80" width="100" height="20" as="geometry" />
        </mxCell>
        <mxCell id="lABieaH--rDoVOybhZKd-7" value="" style="rounded=0;whiteSpace=wrap;html=1;fontColor=#FFD966;" parent="1" vertex="1">
          <mxGeometry x="100" y="120" width="10" height="160" as="geometry" />
        </mxCell>
        <mxCell id="lABieaH--rDoVOybhZKd-9" value="&lt;font color=&quot;#000000&quot;&gt;openweChat&lt;/font&gt;" style="rounded=0;whiteSpace=wrap;html=1;fillColor=#ffff88;strokeColor=#36393d;" parent="1" vertex="1">
          <mxGeometry x="220" y="80" width="90" height="20" as="geometry" />
        </mxCell>
        <mxCell id="lABieaH--rDoVOybhZKd-10" value="" style="rounded=0;whiteSpace=wrap;html=1;fontColor=#FFD966;" parent="1" vertex="1">
          <mxGeometry x="260" y="120" width="10" height="220" as="geometry" />
        </mxCell>
        <mxCell id="lABieaH--rDoVOybhZKd-11" value="扫码登陆" style="endArrow=classic;html=1;rounded=0;fontColor=#000000;" parent="1" edge="1">
          <mxGeometry relative="1" as="geometry">
            <mxPoint x="120" y="129" as="sourcePoint" />
            <mxPoint x="260" y="129" as="targetPoint" />
            <mxPoint as="offset" />
          </mxGeometry>
        </mxCell>
        <mxCell id="lABieaH--rDoVOybhZKd-14" value="&lt;font color=&quot;#000000&quot;&gt;微信开放平台&lt;/font&gt;" style="rounded=0;whiteSpace=wrap;html=1;fillColor=#ffff88;strokeColor=#36393d;" parent="1" vertex="1">
          <mxGeometry x="350" y="80" width="90" height="20" as="geometry" />
        </mxCell>
        <mxCell id="lABieaH--rDoVOybhZKd-15" value="" style="rounded=0;whiteSpace=wrap;html=1;fontColor=#FFD966;" parent="1" vertex="1">
          <mxGeometry x="390" y="120" width="10" height="220" as="geometry" />
        </mxCell>
        <mxCell id="lABieaH--rDoVOybhZKd-16" value="获取二维码" style="endArrow=classic;html=1;rounded=0;fontColor=#000000;" parent="1" edge="1">
          <mxGeometry relative="1" as="geometry">
            <mxPoint x="270" y="131" as="sourcePoint" />
            <mxPoint x="390" y="130" as="targetPoint" />
            <mxPoint as="offset" />
          </mxGeometry>
        </mxCell>
        <mxCell id="lABieaH--rDoVOybhZKd-17" value="返回二维码" style="endArrow=classic;html=1;rounded=0;fontColor=#000000;" parent="1" edge="1">
          <mxGeometry x="0.0001" relative="1" as="geometry">
            <mxPoint x="390" y="160" as="sourcePoint" />
            <mxPoint x="270" y="161" as="targetPoint" />
            <mxPoint y="-1" as="offset" />
          </mxGeometry>
        </mxCell>
        <mxCell id="lABieaH--rDoVOybhZKd-18" value="将二维码打印至控制台" style="endArrow=classic;html=1;rounded=0;fontColor=#000000;entryX=1.4;entryY=0.25;entryDx=0;entryDy=0;entryPerimeter=0;" parent="1" target="lABieaH--rDoVOybhZKd-7" edge="1">
          <mxGeometry x="0.0074" relative="1" as="geometry">
            <mxPoint x="260" y="160" as="sourcePoint" />
            <mxPoint x="120" y="160" as="targetPoint" />
            <mxPoint as="offset" />
          </mxGeometry>
        </mxCell>
        <mxCell id="lABieaH--rDoVOybhZKd-20" value="&lt;font color=&quot;#000000&quot;&gt;chatGPT&lt;/font&gt;" style="rounded=0;whiteSpace=wrap;html=1;fillColor=#ffff88;strokeColor=#36393d;" parent="1" vertex="1">
          <mxGeometry x="470" y="80" width="90" height="20" as="geometry" />
        </mxCell>
        <mxCell id="lABieaH--rDoVOybhZKd-21" value="注册消息回调函数" style="endArrow=classic;html=1;rounded=0;fontColor=#000000;" parent="1" edge="1">
          <mxGeometry relative="1" as="geometry">
            <mxPoint x="120" y="220" as="sourcePoint" />
            <mxPoint x="260" y="220" as="targetPoint" />
            <mxPoint as="offset" />
          </mxGeometry>
        </mxCell>
        <mxCell id="lABieaH--rDoVOybhZKd-22" value="轮询获取信息" style="endArrow=classic;html=1;rounded=0;fontColor=#000000;" parent="1" edge="1">
          <mxGeometry x="0.0001" relative="1" as="geometry">
            <mxPoint x="270" y="201" as="sourcePoint" />
            <mxPoint x="390" y="200" as="targetPoint" />
            <mxPoint y="-1" as="offset" />
          </mxGeometry>
        </mxCell>
        <mxCell id="lABieaH--rDoVOybhZKd-23" value="返回信息" style="endArrow=classic;html=1;rounded=0;fontColor=#000000;" parent="1" edge="1">
          <mxGeometry x="0.0001" y="1" relative="1" as="geometry">
            <mxPoint x="390" y="229" as="sourcePoint" />
            <mxPoint x="270" y="230" as="targetPoint" />
            <mxPoint as="offset" />
          </mxGeometry>
        </mxCell>
        <mxCell id="lABieaH--rDoVOybhZKd-25" value="将消息发送给chatGPT" style="endArrow=classic;html=1;rounded=0;fontColor=#000000;" parent="1" edge="1">
          <mxGeometry relative="1" as="geometry">
            <mxPoint x="280" y="260" as="sourcePoint" />
            <mxPoint x="500" y="260" as="targetPoint" />
            <mxPoint as="offset" />
          </mxGeometry>
        </mxCell>
        <mxCell id="lABieaH--rDoVOybhZKd-26" value="" style="rounded=0;whiteSpace=wrap;html=1;fontColor=#FFD966;" parent="1" vertex="1">
          <mxGeometry x="510" y="120" width="10" height="200" as="geometry" />
        </mxCell>
        <mxCell id="lABieaH--rDoVOybhZKd-27" value="返回AI答复" style="endArrow=classic;html=1;rounded=0;fontColor=#000000;" parent="1" edge="1">
          <mxGeometry relative="1" as="geometry">
            <mxPoint x="500" y="290" as="sourcePoint" />
            <mxPoint x="280" y="290" as="targetPoint" />
            <mxPoint as="offset" />
          </mxGeometry>
        </mxCell>
        <mxCell id="lABieaH--rDoVOybhZKd-28" value="将AI信息发送给用户" style="endArrow=classic;html=1;rounded=0;fontColor=#000000;" parent="1" edge="1">
          <mxGeometry y="1" relative="1" as="geometry">
            <mxPoint x="270" y="321" as="sourcePoint" />
            <mxPoint x="390" y="320" as="targetPoint" />
            <mxPoint as="offset" />
          </mxGeometry>
        </mxCell>
        <mxCell id="lABieaH--rDoVOybhZKd-29" value="" style="rounded=0;whiteSpace=wrap;html=1;fontColor=#000000;" parent="1" vertex="1">
          <mxGeometry x="60" y="370" width="500" height="20" as="geometry" />
        </mxCell>
      </root>
    </mxGraphModel>
  </diagram>
</mxfile>
